# xmcd CD database file
#
# Track frame offsets:
#	150
#	24022
#	64035
#	69673
#	100532
#	107113
#	127276
#	142902
#	168606
#	187860
#	205801
#	220013
#	244115
#	255627
#	285829
#	311193
#
# Disc length: 4418 seconds
#
# Revision: 0
# Processed by: cddbd v1.5.1PL0 Copyright (c) Steve Scherf et al.
# Submitted via: CDex 1.51
#
DISCID=e0114010
DTITLE=Magnatune Compilation - New Age and Jazz
DYEAR=2004
DGENRE=New Age
TTITLE0=Ehren Starks: The Tale of Room 620
TTITLE1=Beth Quist: Q Song
TTITLE2=Paul Berget: Recercar 2
TTITLE3=Stellamara: Immrama
TTITLE4=Jan Hanford: Prelude No. 14 in D Minor
TTITLE5=Hans Christian: Backwards (with my eyes closed)
TTITLE6=DAC Crowell: Northeastern Corridor
TTITLE7=Kourosh Zolani: Goodbye homeland
TTITLE8=Bjorn Fogelberg: Karooshi Porn
TTITLE9=Jeff Wahl: Freedom
TTITLE10=Michael Masley: Soliel
TTITLE11=Trip Wamsley: Finally
TTITLE12=Jag: Juke Joint Boogie
TTITLE13=Thursday Group: Like White on Rice
TTITLE14=Scott Hill: You Think Too Much
TTITLE15=Chris Juergenson: Prospects
EXTD=YEAR: 2004
EXTT0=
EXTT1=
EXTT2=
EXTT3=
EXTT4=
EXTT5=
EXTT6=
EXTT7=
EXTT8=
EXTT9=
EXTT10=
EXTT11=
EXTT12=
EXTT13=
EXTT14=
EXTT15=
PLAYORDER=
